<?xml version="1.0" encoding="UTF-8" standalone="no"?>
<svg width="137px" height="66px" viewBox="0 0 137 66" version="1.1" xmlns="http://www.w3.org/2000/svg" xmlns:xlink="http://www.w3.org/1999/xlink" xmlns:sketch="http://www.bohemiancoding.com/sketch/ns">
    <!-- Generator: Sketch 3.3.2 (12043) - http://www.bohemiancoding.com/sketch -->
    <title>Imported Layers + Imported Layers</title>
    <desc>Created with Sketch.</desc>
    <defs/>
    <g id="Page-1" stroke="none" stroke-width="1" fill="none" fill-rule="evenodd" sketch:type="MSPage">
        <g id="Artboard-1-Copy-5" sketch:type="MSArtboardGroup" transform="translate(-298.000000, -285.000000)">
            <g id="Imported-Layers-+-Imported-Layers" sketch:type="MSLayerGroup" transform="translate(298.000000, 285.000000)">
                <g id="Imported-Layers" transform="translate(0.000000, 0.615269)" sketch:type="MSShapeGroup">
                    <path d="M6,0.256637116 L88.0060973,0.256637116 C88.0060973,0.256637116 89,4.25663712 92,5.25663712 C95,6.25663712 94,49.2566371 94,49.2566371 L6,50.2566371 L6,0.256637116 Z" id="Path-127" fill="#FFFFFF"/>
                    <path d="M6.80924455,0.635811257 C4.99705996,0.623560559 3.84794443,0.598752894 3.84396295,0.554956647 C3.84396295,1.56257661 2.44952719,3.25347928 0.730754172,3.25347928 L0.730754172,5.55814196 C2.44952719,5.55814196 3.84396295,6.95257772 3.84396295,8.67104447 C3.84396295,10.3898175 2.44952719,11.7799655 0.730754172,11.7799655 L0.730754172,14.0870783 C2.44952719,14.0870783 3.84396295,15.479064 3.84396295,17.1987558 C3.84396295,18.9169162 2.44952719,20.3101269 0.730754172,20.3101269 L0.730754172,22.6147896 C2.44952719,22.6147896 3.84396295,24.0080003 3.84396295,25.7264671 C3.84396295,27.4449338 2.44952719,28.838757 0.730754172,28.838757 L0.730754172,31.1434197 C2.44952719,31.1434197 3.84396295,32.5366304 3.84396295,34.2541784 C3.84396295,35.9738702 2.44952719,37.3664683 0.730754172,37.3664683 L0.730754172,39.671131 C2.44952719,39.671131 3.84396295,41.0649543 3.84396295,42.7840335 C3.84396295,44.5028065 2.44952719,45.8954047 0.730754172,45.8954047 L0.730754172,48.1994549 C2.44952719,48.1994549 3.84396295,49.8909701 3.84396295,50.8976712 L46.0390442,50.8976712 C53.3285161,50.8976712 60.622582,50.937486 67.9080725,50.9393236 C71.884343,50.9405487 75.8603072,50.911147 79.8362715,50.8998151 C80.4331867,50.8979775 88.1174374,50.5004423 88.2362692,50.8976712 C88.2362692,50.7246301 88.2800655,50.5304565 88.3572449,50.3286263 C85.7352891,49.9764187 16.9978443,41.0398403 6.80924455,0.635811257" id="Fill-1" fill="#F2F2F2"/>
                    <path d="M68.1438984,51.3987248 L67.9080725,51.3987248 C64.3498571,51.397806 60.7891915,51.3880054 57.228526,51.3782049 C53.4988008,51.3677918 49.7681568,51.3570724 46.0390442,51.3570724 L3.84396295,51.3570724 C3.59037349,51.3570724 3.38456176,51.1515669 3.38456176,50.8976712 C3.38456176,50.1411906 2.18307449,48.658856 0.730754172,48.658856 C0.477164711,48.658856 0.271352974,48.4530443 0.271352974,48.1994549 L0.271352974,45.8954047 C0.271352974,45.641509 0.477164711,45.4360035 0.730754172,45.4360035 C2.19410012,45.4360035 3.38456176,44.2464607 3.38456176,42.7840335 C3.38456176,41.3209939 2.19410012,40.1305322 0.730754172,40.1305322 C0.477164711,40.1305322 0.271352974,39.9247205 0.271352974,39.671131 L0.271352974,37.3664683 C0.271352974,37.1128789 0.477164711,36.9070671 0.730754172,36.9070671 C2.19410012,36.9070671 3.38456176,35.7169118 3.38456176,34.2541784 C3.38456176,32.7920575 2.19410012,31.6028209 0.730754172,31.6028209 C0.477164711,31.6028209 0.271352974,31.3973154 0.271352974,31.1434197 L0.271352974,28.838757 C0.271352974,28.5851676 0.477164711,28.3793558 0.730754172,28.3793558 C2.19410012,28.3793558 3.38456176,27.1892005 3.38456176,25.7264671 C3.38456176,24.2640399 2.19410012,23.0741908 0.730754172,23.0741908 C0.477164711,23.0741908 0.271352974,22.8683791 0.271352974,22.6147896 L0.271352974,20.3101269 C0.271352974,20.0562312 0.477164711,19.8504195 0.730754172,19.8504195 C2.19410012,19.8504195 3.38456176,18.6611829 3.38456176,17.1987558 C3.38456176,15.7363286 2.19410012,14.5464795 0.730754172,14.5464795 C0.477164711,14.5464795 0.271352974,14.3406678 0.271352974,14.0870783 L0.271352974,11.7799655 C0.271352974,11.526376 0.477164711,11.3205643 0.730754172,11.3205643 C2.19410012,11.3205643 3.38456176,10.1319403 3.38456176,8.67104447 C3.38456176,7.20800479 2.19410012,6.01754315 0.730754172,6.01754315 C0.477164711,6.01754315 0.271352974,5.81203768 0.271352974,5.55814196 L0.271352974,3.25347928 C0.271352974,2.99988982 0.477164711,2.79407808 0.730754172,2.79407808 C2.18307449,2.79407808 3.38456176,1.31174355 3.38456176,0.554956647 C3.38456176,0.309636407 3.57751026,0.107806148 3.82252423,0.096167984 C3.88102132,0.0940241118 3.93706826,0.101680798 3.98913373,0.119138044 C4.23476024,0.146089581 5.42920335,0.186210619 10.3772605,0.186210619 C16.0572969,0.186210619 23.9758422,0.133838882 27.7815218,0.109031218 C29.0013851,0.101068263 29.806256,0.0955554491 29.990629,0.0955554491 C31.3081916,0.0955554491 32.6481118,0.110562555 33.9439294,0.124957126 C35.2357656,0.139351697 36.571398,0.154358802 37.8809977,0.154358802 L38.4855697,0.153133733 C39.6126339,0.149152255 40.7403107,0.137207824 41.8689063,0.125263393 C43.2354718,0.110562555 44.6482836,0.0955554491 46.0390442,0.0955554491 L68.7310132,0.0937178443 C68.9996097,0.0937178443 69.8743096,0.0891238323 71.1143866,0.0826922156 C74.247809,0.0673788423 79.4920268,0.0410398403 83.3865239,0.0410398403 C84.7812659,0.0410398403 85.9953102,0.0444087824 86.8605158,0.0529842715 C87.2966406,0.057272016 87.6448667,0.0630910978 87.8837554,0.069828982 C88.2641396,0.0814671457 88.6956704,0.0943303792 88.6956704,0.554956647 C88.6956704,1.31174355 89.8959326,2.79407808 91.3470279,2.79407808 C91.6006173,2.79407808 91.8064291,2.99988982 91.8064291,3.25347928 L91.8064291,5.55814196 C91.8064291,5.81203768 91.6006173,6.01754315 91.3470279,6.01754315 C89.884907,6.01754315 88.6956704,7.20708599 88.6956704,8.66951313 C88.6956704,10.1313277 89.884907,11.3205643 91.3470279,11.3205643 C91.6006173,11.3205643 91.8064291,11.526376 91.8064291,11.7799655 L91.8064291,14.0870783 C91.8064291,14.3406678 91.6006173,14.5464795 91.3470279,14.5464795 C89.884907,14.5464795 88.6956704,15.7363286 88.6956704,17.1987558 C88.6956704,18.6611829 89.884907,19.8504195 91.3470279,19.8504195 C91.6006173,19.8504195 91.8064291,20.0562312 91.8064291,20.3101269 L91.8064291,22.6147896 C91.8064291,22.8683791 91.6006173,23.0741908 91.3470279,23.0741908 C89.884907,23.0741908 88.6956704,24.2640399 88.6956704,25.7264671 C88.6956704,27.1892005 89.884907,28.3793558 91.3470279,28.3793558 C91.6006173,28.3793558 91.8064291,28.5851676 91.8064291,28.838757 L91.8064291,31.1434197 C91.8064291,31.3973154 91.6006173,31.6028209 91.3470279,31.6028209 C89.884907,31.6028209 88.6956704,32.7920575 88.6956704,34.2541784 C88.6956704,35.7169118 89.884907,36.9070671 91.3470279,36.9070671 C91.6006173,36.9070671 91.8064291,37.1128789 91.8064291,37.3664683 L91.8064291,39.671131 C91.8064291,39.9247205 91.6006173,40.1305322 91.3470279,40.1305322 C89.884907,40.1305322 88.6956704,41.3197688 88.6956704,42.7815834 C88.6956704,44.2452356 89.884907,45.4360035 91.3470279,45.4360035 C91.6006173,45.4360035 91.8064291,45.641509 91.8064291,45.8954047 L91.8064291,48.1994549 C91.8064291,48.4530443 91.6006173,48.658856 91.3470279,48.658856 C89.8959326,48.658856 88.6956704,50.1411906 88.6956704,50.8976712 C88.6956704,51.1261467 88.5284484,51.3194015 88.302423,51.3524784 C88.1759345,51.3711607 88.0515899,51.3356337 87.9557282,51.2618232 C87.8304648,51.235178 87.4179226,51.1806624 86.1426248,51.1806624 C84.4627478,51.1806624 82.2031064,51.2700925 80.8527732,51.323383 C80.3244618,51.3445154 79.9523468,51.35891 79.8378028,51.3592163 C78.36435,51.363504 76.8915098,51.3699356 75.4186695,51.3769798 C72.9936438,51.3876992 70.5689242,51.3987248 68.1438984,51.3987248 L68.1438984,51.3987248 Z M4.23996679,50.43827 L46.0390442,50.43827 C49.7690756,50.43827 53.5006384,50.4489894 57.2309761,50.4594025 C60.7910291,50.469203 64.3507759,50.4790036 67.9080725,50.4799224 L68.1438984,50.4799224 C70.5676992,50.4799224 72.9908873,50.4688968 75.4143818,50.4581774 C76.8878346,50.4511333 78.3612873,50.4447016 79.8350464,50.4404139 C79.9456089,50.4401076 80.3054732,50.4257131 80.8166336,50.4054994 C82.1737048,50.3515963 84.444678,50.26186 86.1426248,50.26186 C86.9566838,50.26186 87.5030649,50.2783984 87.8736485,50.3218884 C88.2132992,49.2465833 89.4095799,47.9963995 90.8876267,47.7743556 L90.8876267,46.3254042 C89.1351642,46.0990726 87.776868,44.5959119 87.776868,42.7815834 C87.776868,40.9687863 89.1351642,39.4671569 90.8876267,39.2411315 L90.8876267,37.7964679 C89.1351642,37.5701362 87.776868,36.0678943 87.776868,34.2541784 C87.776868,32.4413812 89.1351642,30.9394456 90.8876267,30.7134202 L90.8876267,29.2687566 C89.1351642,29.0424249 87.776868,27.540183 87.776868,25.7264671 C87.776868,23.9130574 89.1351642,22.4108155 90.8876267,22.1844838 L90.8876267,20.7401265 C89.1351642,20.5137948 87.776868,19.0118592 87.776868,17.1987558 C87.776868,15.3853461 89.1351642,13.8831042 90.8876267,13.6570788 L90.8876267,12.209965 C89.1351642,11.9839396 87.776868,10.4823103 87.776868,8.66951313 C87.776868,6.85640974 89.1351642,5.35416782 90.8876267,5.12814244 L90.8876267,3.67857852 C89.3431198,3.44673405 88.1064118,2.09180679 87.8332212,0.987406307 C87.341662,0.973624271 86.1582445,0.959842236 83.3865239,0.959842236 C79.494477,0.959842236 74.251178,0.986181238 71.1189806,1.00149461 C69.8767598,1.00792623 69.0002223,1.01252024 68.7310132,1.01252024 L46.0390442,1.01435784 C44.6531839,1.01435784 43.2425159,1.02936495 41.8787069,1.04375952 C40.7479674,1.05570395 39.6178405,1.06795465 38.4889386,1.07193613 L37.8809977,1.0731612 C36.5664977,1.0731612 35.2278026,1.05815409 33.9335163,1.04375952 C32.6401488,1.02936495 31.3029851,1.01435784 29.990629,1.01435784 C29.8065622,1.01435784 29.0041415,1.01987066 27.7873408,1.02783361 C23.9810488,1.05264128 16.0603596,1.10501301 10.3772605,1.10501301 C8.35834539,1.10501301 6.78535569,1.09827513 5.70208766,1.08510563 C5.03503713,1.07714267 4.56338523,1.07132359 4.22924743,1.05417261 C3.9235925,2.14601613 2.70464798,3.45132806 1.19015537,3.67857852 L1.19015537,5.12814244 C2.94384287,5.35416782 4.30336415,6.85702228 4.30336415,8.67104447 C4.30336415,10.4832291 2.94384287,11.9842459 1.19015537,12.209965 L1.19015537,13.6570788 C2.94384287,13.8831042 4.30336415,15.3850398 4.30336415,17.1987558 C4.30336415,19.0121654 2.94384287,20.5137948 1.19015537,20.7401265 L1.19015537,22.1844838 C2.94384287,22.4108155 4.30336415,23.9127511 4.30336415,25.7264671 C4.30336415,27.5404893 2.94384287,29.0427312 1.19015537,29.2687566 L1.19015537,30.7134202 C2.94384287,30.9394456 4.30336415,32.441075 4.30336415,34.2541784 C4.30336415,36.0682006 2.94384287,37.5704425 1.19015537,37.7964679 L1.19015537,39.2411315 C2.94384287,39.4671569 4.30336415,40.9697051 4.30336415,42.7840335 C4.30336415,44.5974432 2.94384287,46.0990726 1.19015537,46.3254042 L1.19015537,47.7743556 C2.7233303,48.0040562 3.95299417,49.3390761 4.23996679,50.43827 L4.23996679,50.43827 Z M4.25037988,0.340569421 C4.27794395,0.39263489 4.2954012,0.450825709 4.30122028,0.512691737 C4.29509493,0.447763034 4.27671888,0.39018475 4.25037988,0.340569421 L4.25037988,0.340569421 Z" id="Fill-2" fill="#666666"/>
                    <path d="M25.6995155,40.5880958 C19.6452203,40.5880958 13.4589238,36.5040192 11.5052436,30.6291966 C11.0320604,29.2038279 10.8388056,27.2339155 10.8388056,25.7264671 C10.8388056,22.5391416 12.0813327,19.8893154 13.5688738,17.1396461 C14.2739015,15.8355593 15.6763002,14.6573483 16.8468545,13.787855 C19.3959186,11.8945095 22.524747,10.8648383 25.6995155,10.8648383 C34.1684235,10.8648383 40.5620631,17.3227941 40.5620631,25.7264671 C40.5620631,28.3787433 39.7045142,30.4916826 38.7308899,32.8885317 C37.9633836,34.7778957 36.7530146,35.5423393 35.2207585,36.8543891 C32.3687958,39.2965659 29.5367406,40.5880958 25.6995155,40.5880958" id="Fill-3" fill="#00B8F1"/>
                    <path d="M25.6995155,41.047497 C19.3064885,41.047497 13.0169798,36.6308139 11.069425,30.7740612 C10.5604085,29.2414988 10.3794044,27.1616364 10.3794044,25.7264671 C10.3794044,22.3529309 11.7554641,19.5266948 13.1646007,16.9209712 C13.9507893,15.4677321 15.4861081,14.2261238 16.5727451,13.4188027 C19.1894943,11.4755356 22.4307229,10.4054371 25.6995155,10.4054371 C34.4345699,10.4054371 41.0214643,16.991719 41.0214643,25.7264671 C41.0214643,28.4693985 40.1571775,30.5973448 39.1566017,33.0612666 C38.4674999,34.7579883 37.4249654,35.6201313 36.2185779,36.6179507 C35.9937776,36.803855 35.760708,36.9968035 35.5196755,37.2035341 C32.3727773,39.8977689 29.4359786,41.047497 25.6995155,41.047497 L25.6995155,41.047497 Z M25.6995155,11.3242395 C22.6267341,11.3242395 19.5799853,12.3300219 17.1206576,14.156601 C15.5274542,15.3403248 14.497783,16.3874533 13.9728406,17.3583211 C12.5633977,19.9640447 11.2982068,22.5651743 11.2982068,25.7264671 C11.2982068,27.0899698 11.4669602,29.0559007 11.9413685,30.4843321 C13.7697852,35.9824457 19.6844225,40.1286946 25.6995155,40.1286946 C29.1980088,40.1286946 31.9562536,39.0451203 34.9218414,36.5052442 C35.1671617,36.295451 35.404519,36.0991336 35.6329945,35.9101665 C36.834788,34.9160224 37.7030563,34.1975189 38.3051781,32.7154906 C39.2699206,30.3406927 40.1026619,28.2899257 40.1026619,25.7264671 C40.1026619,17.5157426 33.9108525,11.3242395 25.6995155,11.3242395 L25.6995155,11.3242395 Z" id="Fill-4" fill="#666666"/>
                    <path d="M18.1022448,22.2331804 L18.1022448,22.1936719 C18.1022448,20.2399917 19.4642162,18.6614892 21.4773123,18.6614892 C23.4705009,18.6614892 24.812565,20.2200843 24.812565,22.1541634 L24.812565,22.1936719 C24.812565,24.1280572 23.4505935,25.7264671 21.4378038,25.7264671 C19.4443088,25.7264671 18.1022448,24.1675657 18.1022448,22.2331804 L18.1022448,22.2331804 Z M22.7403593,22.2331804 L22.7403593,22.1936719 C22.7403593,21.266294 22.227055,20.4571353 21.4378038,20.4571353 C20.6087377,20.4571353 20.1747567,21.2466929 20.1747567,22.1541634 L20.1747567,22.1936719 C20.1747567,23.121356 20.6877547,23.9308209 21.4773123,23.9308209 C22.306072,23.9308209 22.7403593,23.121356 22.7403593,22.2331804 L22.7403593,22.2331804 Z M20.5297207,31.1933413 C21.5391783,29.8111562 22.5489421,28.4289712 23.5583997,27.0464798 C25.4832907,24.4110483 27.4997557,21.7897051 29.3514488,19.1153776 C29.5290839,18.8587254 29.8448457,18.7006914 30.1609137,18.7006914 C30.6736054,18.7006914 31.0882916,19.1153776 31.0882916,19.6280693 C31.0882916,19.8847214 31.0092746,20.0819577 30.8711479,20.2595928 L22.0494199,32.3375566 C21.8717848,32.5942087 21.5563293,32.7519364 21.2402612,32.7519364 C20.7272632,32.7519364 20.3128834,32.3375566 20.3128834,31.8248648 C20.3128834,31.5682127 20.4111952,31.3709764 20.5297207,31.1933413 L20.5297207,31.1933413 Z M26.58861,29.2987708 L26.58861,29.2592623 C26.58861,27.3049696 27.9505814,25.7264671 29.9633712,25.7264671 C31.9565598,25.7264671 33.2986239,27.2853685 33.2986239,29.2197538 L33.2986239,29.2592623 C33.2986239,31.1933413 31.9366525,32.791445 29.9238627,32.791445 C27.930674,32.791445 26.58861,31.2325436 26.58861,29.2987708 L26.58861,29.2987708 Z M31.2264182,29.2987708 L31.2264182,29.2592623 C31.2264182,28.3315781 30.7131139,27.5221132 29.9238627,27.5221132 C29.0951029,27.5221132 28.6608156,28.3116707 28.6608156,29.2197538 L28.6608156,29.2592623 C28.6608156,30.1863339 29.1741199,30.9957988 29.9633712,30.9957988 C30.7921309,30.9957988 31.2264182,30.1863339 31.2264182,29.2987708 L31.2264182,29.2987708 Z" id="Fill-5" fill="#FFFFFF"/>
                    <path d="M66.913622,18.6584265 C64.4588883,18.6584265 62.0001731,18.553683 59.5907669,18.2069883 C57.8523928,17.9543176 56.0285701,18.092138 54.0987788,18.2385338 C52.9548698,18.3249012 51.7726774,18.4143313 50.6106986,18.4143313 C49.9341538,18.4143313 49.3856287,17.8658063 49.3856287,17.1892615 C49.3856287,16.5127166 49.9341538,15.9641916 50.6106986,15.9641916 C51.6801846,15.9641916 52.764984,15.8821119 53.9137932,15.795132 C55.8919748,15.6456735 57.9378414,15.4913147 59.9414432,15.7822687 C63.9918304,16.3650957 68.3046889,16.2226814 72.4766643,16.0860861 C74.3007933,16.0260576 76.1867883,15.9641916 78.0216367,15.9641916 C78.6981816,15.9641916 79.2467066,16.5127166 79.2467066,17.1892615 C79.2467066,17.8658063 78.6981816,18.4143313 78.0216367,18.4143313 C76.2272156,18.4143313 74.3614343,18.4755848 72.5569063,18.5350007 C70.6954127,18.5962542 68.8054362,18.6584265 66.913622,18.6584265" id="Fill-6" fill="#666666"/>
                    <path d="M51.3537035,26.6909033 C51.0930699,26.6909033 50.836724,26.6884532 50.5858909,26.6832466 C49.9096524,26.6694646 49.372153,26.1102202 49.385935,25.4336754 C49.399717,24.7571305 49.9568176,24.2110556 50.6355063,24.2337194 C51.6942729,24.2554644 52.8583955,24.2279004 54.0026108,24.155315 C57.2263821,23.9507283 60.5527531,24.0432211 63.770399,24.1329574 C65.5430751,24.1822665 67.3760859,24.2334132 69.161319,24.2334132 L78.0216367,24.2334132 C78.6981816,24.2334132 79.2467066,24.7819382 79.2467066,25.458483 C79.2467066,26.1350279 78.6981816,26.6835529 78.0216367,26.6835529 L69.161319,26.6835529 C67.3420902,26.6835529 65.4916222,26.6321 63.7021014,26.5821784 C60.5398898,26.4942796 57.2707909,26.4030119 54.1578884,26.6005544 C53.2164222,26.6602766 52.2608677,26.6909033 51.3537035,26.6909033" id="Fill-7" fill="#666666"/>
                    <path d="M57.9059896,35.6991483 C56.3486196,35.6991483 54.7789988,35.6608648 53.2066216,35.549996 C52.3374346,35.4887425 51.4201635,35.4887425 50.6106986,35.4887425 C49.9341538,35.4887425 49.3856287,34.9402175 49.3856287,34.2636727 C49.3856287,33.5871278 49.9341538,33.0386028 50.6106986,33.0386028 C51.4602846,33.0386028 52.4234957,33.0386028 53.378744,33.1059816 C56.602209,33.3335384 59.8728393,33.2422707 63.0356634,33.1540656 C67.3904805,33.0321712 71.7995069,33.0352339 76.0618312,33.037684 L78.0216367,33.0386028 C78.6981816,33.0386028 79.2467066,33.5871278 79.2467066,34.2636727 C79.2467066,34.9402175 78.6981816,35.4887425 78.0216367,35.4887425 L76.0602999,35.4878237 C71.8151265,35.4853736 67.4241699,35.4820046 63.1042673,35.6029803 C61.3974387,35.650758 59.6596771,35.6991483 57.9059896,35.6991483" id="Fill-8" fill="#666666"/>
                </g>
                <g id="Imported-Layers" transform="translate(54.964072, 1.378060)" sketch:type="MSShapeGroup">
                    <path d="M77.4602663,47.240821 C76.7025134,47.240821 75.949438,47.1490703 75.2165117,47.0594784 C74.4868237,46.9702463 73.7974341,46.8860516 73.1091239,46.8860516 C72.8112039,46.8860516 72.5697736,46.6442615 72.5697736,46.3459817 C72.5697736,46.047702 72.8115637,45.8066315 73.1094837,45.8066315 L73.1098435,45.8066315 C73.8632787,45.8066315 74.6177934,45.898742 75.3471215,45.9876142 C76.2408814,46.0966357 77.0853477,46.2009796 77.91866,46.1477282 C78.34683,46.1203829 78.7663646,46.0570569 79.2107259,45.9897731 C79.6439332,45.9246481 80.0875749,45.857724 80.5466882,45.8253414 L80.545249,27.7079945 C80.545249,27.4100746 80.7870391,27.1682845 81.084959,27.1682845 C81.382879,27.1682845 81.6246691,27.4100746 81.6246691,27.7079945 L81.6261083,46.3456219 C81.6261083,46.4884652 81.5692589,46.6259113 81.4681532,46.727017 C81.3670475,46.8281227 81.2296013,46.885332 81.0863983,46.885332 C80.5132262,46.885332 79.9587641,46.9688071 79.3715595,47.0573196 C78.9246796,47.1249632 78.4619682,47.1944059 77.9866635,47.2249895 C77.8110778,47.2357837 77.635852,47.240821 77.4602663,47.240821" id="Fill-1" fill="#666666"/>
                    <path d="M77.80712,53.5647836 C72.5992778,53.5806151 67.3820806,53.6299086 62.2059014,53.6759639 C60.9951518,53.6863983 59.7772061,53.5597463 58.5578212,53.5597463 C47.5175123,53.5604659 36.461372,53.6863983 25.4372544,53.4025108 C23.8357548,53.3614928 5.3093077,53.8011766 5.30642925,53.564064 C5.25425727,48.2018647 5.30642925,42.8342683 5.30642925,37.4724288 C5.30642925,28.10738 5.63457296,18.6304312 5.30570963,9.27149911 C5.31830287,9.63238523 23.4104633,8.97645761 24.8914277,8.9707007 C35.2315527,8.92356603 45.5914671,9.26934027 55.9449049,9.26826085 C83.3556991,8.45581731 81.3166745,9.05561509 81.395832,14.5538213 C81.4048272,17.7694138 81.4120233,20.9853661 81.4188596,24.2016782 C81.4357706,32.2771799 81.3782015,40.3569992 81.3789211,48.4400567 C81.3785613,48.5634704 81.3785613,49.669876 81.3789211,50.8226967 C81.4062664,53.7461262 81.0914355,53.791102 77.80712,53.5647836" id="Fill-2" fill="#F2F2F2"/>
                    <path d="M62.0601796,54.2163935 C61.4664986,54.2163935 60.8670606,54.1865296 60.2877718,54.1573852 C59.7189174,54.1289605 59.1306335,54.0994564 58.5578212,54.0994564 C55.9762081,54.0994564 53.3935156,54.1066525 50.8104633,54.1134888 C48.1953882,54.1210448 45.5803131,54.1278811 42.9655978,54.1278811 C38.1603792,54.1278811 31.8234636,54.1070123 25.423222,53.941861 C24.8727177,53.9281884 22.2231012,53.9728044 19.0938623,54.0253362 C14.1565947,54.1091711 7.69554575,54.211716 5.88643765,54.1581048 C5.28915853,54.1404743 4.77355552,54.1253624 4.76671919,53.5705405 C4.73181794,49.9904638 4.74405137,46.3520984 4.75520538,42.8331889 C4.76096229,41.046029 4.76671919,39.2585093 4.76671919,37.4724288 C4.76671919,34.3536243 4.80341948,31.1700546 4.83940015,28.0908289 C4.91100168,21.9136674 4.98548167,15.5263788 4.76635939,9.29488654 L4.76635939,9.29020906 C4.75592499,8.99228911 4.98871993,8.74258325 5.28663988,8.73214886 C5.37875039,8.72855079 5.46978149,8.74941958 5.54785954,8.78899832 C5.68998319,8.80734846 6.13326505,8.84009087 7.4886569,8.84009087 C10.822266,8.84009087 17.1296775,8.65227177 21.303795,8.52813846 C23.1704722,8.47272823 24.5190277,8.43207007 24.8892688,8.43099065 C30.3791995,8.40472476 35.977432,8.4928774 41.3846071,8.57743198 C46.1423311,8.65191197 51.0619682,8.72855079 55.8981301,8.72855079 L55.9449049,8.72855079 C62.9848829,8.51986291 67.1593602,8.43422891 70.3382524,8.43422891 C77.207682,8.43422891 79.9285403,8.84224971 81.1223789,10.05156 C81.9726022,10.9132971 81.9578501,12.0502863 81.9387803,13.4895131 C81.9348225,13.8194558 81.930145,14.1713468 81.9355421,14.5462654 C81.9445372,17.7679746 81.9517334,20.9839269 81.9585697,24.2005988 C81.9682845,28.7302054 81.9535324,33.3368106 81.9398598,37.7919372 C81.9290656,41.3403509 81.9182714,44.8902038 81.9186312,48.4400567 C81.9182714,48.5649097 81.9182714,49.6705957 81.9186312,50.8226967 C81.9308646,52.1219587 81.8959633,53.0891191 81.3364639,53.6540157 C80.8723133,54.122484 80.1782461,54.1872492 79.4971321,54.1872492 C79.0283039,54.1872492 78.4698839,54.1512685 77.7894894,54.1044936 C72.9947053,54.1192457 68.1272403,54.1627823 63.4198892,54.2045199 L62.0601796,54.2163935 L62.0601796,54.2163935 Z M58.5578212,53.0200362 C59.157619,53.0200362 59.7595756,53.05026 60.3417428,53.0790445 C60.9077188,53.1078291 61.4931243,53.1369734 62.0601796,53.1369734 L63.4101744,53.1250998 C68.1254412,53.0830024 73.0011818,53.0398256 77.8053209,53.0250735 C77.8247505,53.018597 77.8308672,53.0250735 77.8445399,53.0265128 C78.4896733,53.070769 79.0592473,53.1078291 79.4971321,53.1078291 C80.092972,53.1078291 80.4236343,53.0419845 80.5697158,52.8944637 C80.8079079,52.653753 80.8492856,51.9251444 80.8392111,50.827734 C80.8388512,49.6691564 80.8388512,48.5620312 80.8392111,48.4386175 C80.8388512,44.8891244 80.8496454,41.3385518 80.8604396,37.7883391 C80.8741123,33.3346517 80.8888644,28.7298456 80.8791496,24.2027576 C80.8723133,20.9868053 80.8651171,17.770853 80.856122,14.5552605 C80.8503651,14.1760243 80.8554024,13.8144185 80.8593602,13.4754806 C80.8780702,12.0790708 80.8636779,11.3263552 80.3538318,10.8100326 C79.4330865,9.87705379 76.625155,9.51364902 70.3382524,9.51364902 C67.170874,9.51364902 63.0053918,9.59892321 55.9610962,9.80761109 L55.8981301,9.8079709 C51.0536926,9.8079709 46.1297379,9.73097227 41.3676962,9.65685209 C36.61393,9.5827319 31.6978911,9.50573327 26.8696449,9.50573327 C26.2115585,9.50573327 25.5520328,9.5071725 24.8939463,9.51041076 C24.5373779,9.51149018 23.1945793,9.55178853 21.3358178,9.60683895 C17.1555836,9.73169188 10.8384573,9.91951098 7.4886569,9.91951098 C6.78739363,9.91951098 6.26027681,9.91951098 5.86700809,9.90008142 C6.05986448,15.9516703 5.98826295,22.1259534 5.91882025,28.1034221 C5.88283958,31.1794096 5.8461393,34.3601009 5.8461393,37.4724288 C5.8461393,39.2599485 5.84038239,41.0481878 5.83462549,42.836787 C5.82347148,46.1941433 5.81231747,49.6605211 5.84146181,53.0768857 C6.13506408,53.0862407 6.64167192,53.094876 7.51528259,53.094876 C10.2692431,53.094876 15.1521799,53.0124803 19.0758719,52.9462759 C22.2425307,52.8930245 24.8914277,52.8476888 25.4509271,52.8631605 C31.8389353,53.0275922 38.166496,53.048461 42.9655978,53.048461 C45.5792336,53.048461 48.1932293,53.0416246 50.807225,53.0340687 C53.3913568,53.0272324 55.9751287,53.0200362 58.5578212,53.0200362 L58.5578212,53.0200362 Z" id="Fill-3" fill="#666666"/>
                    <path d="M75.2413384,50.9457506 C74.4832257,50.9457506 73.7297904,50.8539999 72.9968642,50.764408 C72.2671762,50.6755358 71.578866,50.5909812 70.8905557,50.5906214 C70.5926358,50.5902616 70.3508457,50.3488313 70.3512055,50.0505515 C70.3515653,49.7526316 70.5929956,49.5112013 70.8909155,49.5112013 L70.8912753,49.5112013 C71.6443508,49.5115611 72.3985056,49.6036716 73.127474,49.6925439 C74.0212338,49.8019251 74.8635413,49.906269 75.7000919,49.8526578 C76.1282619,49.8249527 76.5477965,49.7619866 76.991798,49.6947027 C77.4253651,49.6295777 77.8690067,49.5626536 78.3281201,49.530271 L78.3266808,31.4129242 C78.3266808,31.1150042 78.568471,30.8732141 78.8663909,30.8732141 C79.1646707,30.8732141 79.406101,31.1150042 79.406101,31.4129242 L79.4075402,50.0501917 C79.4075402,50.1933948 79.3506907,50.3308409 79.249585,50.4319466 C79.1484794,50.5330523 79.0110332,50.5899018 78.8678301,50.5899018 C78.2946581,50.5899018 77.7398361,50.6737367 77.1529914,50.7622492 C76.7061115,50.829533 76.2434,50.8993355 75.7680954,50.9299191 C75.5925097,50.9407133 75.4165642,50.9457506 75.2413384,50.9457506" id="Fill-4" fill="#666666"/>
                    <path d="M7.72864797,31.8497295 C7.43072802,31.8497295 7.18893791,31.6082992 7.18893791,31.3100194 L7.18857811,12.6727519 C7.18857811,12.400738 7.39078947,12.1708215 7.66100431,12.1369997 C7.82039868,12.1168505 7.97439594,12.1693823 8.08737525,12.2697684 C8.63068337,12.4086537 10.8747978,12.3773506 14.7625092,12.1762186 C15.323088,12.1470743 15.5987,12.1330418 15.7041233,12.1330418 L15.7055626,12.1330418 C16.0038423,12.1334016 16.2449128,12.3751917 16.244553,12.6734715 C16.2441932,12.9713914 16.0024031,13.2124619 15.7048429,13.2124619 L15.7037635,13.2124619 C15.6217276,13.2124619 15.2496875,13.2315317 14.818639,13.2541995 C11.0914014,13.4474157 9.2229252,13.4733218 8.26799821,13.3794122 L8.26835802,31.3100194 C8.26835802,31.6082992 8.02692772,31.8497295 7.72864797,31.8497295" id="Fill-5" fill="#666666"/>
                    <path d="M53.9947526,45.2446134 C52.3230907,42.1394816 50.8331311,38.9667061 49.0510085,36.0655846 C48.8113772,35.6733953 47.585156,33.9175386 47.5934316,33.3562402 C47.5941512,33.3425675 47.6308515,31.0013053 47.6308515,31.0013053 C50.6345178,31.3085802 52.9703829,30.8354344 53.513691,26.6170606 L47.1127298,26.5630896 C47.1127298,26.5630896 48.1460947,23.9947894 48.1493329,23.9868736 C48.3393109,23.5392741 53.219729,23.9854344 53.2557096,24.0973343 C52.4770879,21.6952647 50.3362381,21.4016625 47.002629,21.5765285 C47.002629,21.5765285 48.1478937,19.0575218 48.1486133,19.0557228 C48.2975733,18.7286585 50.4438203,19.0506855 50.7115164,19.0506855 C53.4931821,19.0445688 56.2108021,19.0380922 58.989949,19.0316157 L57.9170055,21.5214781 L54.9198156,21.5214781 C55.4685209,22.3810563 55.8682661,23.3669267 55.8815789,24.2063557 L58.989949,24.1509455 L57.9170055,26.6170606 L55.8452385,26.6713914 C55.5214124,30.3493355 53.2452752,32.5265259 50.3693403,33.0284562 C51.1324903,32.9018043 52.8444506,37.3979488 53.2269251,38.2517701 C53.9659681,39.8996848 54.8151119,41.45369 55.6423075,43.0231668 C55.7775948,43.279709 56.5868001,45.2431742 56.8134783,45.2431742 L53.9947526,45.2446134" id="Fill-6" fill="#FFFFFF"/>
                    <path d="M53.9947526,45.7843235 C53.7964991,45.7843235 53.6137173,45.675302 53.5198078,45.500436 C52.9588691,44.4587956 52.4119629,43.3966462 51.8826873,42.3697579 C50.7949916,40.2576925 49.7673837,38.2629242 48.5911755,36.3480329 C48.5508772,36.2821883 48.4821541,36.1774845 48.3968799,36.0465149 C47.5401802,34.735739 47.0461656,33.874002 47.0537215,33.3483244 C47.0555205,33.2698865 47.0911414,30.9930297 47.0911414,30.9930297 C47.09366,30.8419109 47.1591449,30.698348 47.272484,30.597962 C47.3851035,30.4975759 47.5347831,30.4493618 47.6855421,30.4644737 C48.1644448,30.5134074 48.5800215,30.5371546 48.9552999,30.5371546 C50.9266808,30.5371546 52.3587115,29.942754 52.8836695,27.1513736 L47.1084121,27.1027997 C46.929948,27.1013604 46.7637173,27.0117686 46.6644107,26.8635282 C46.565104,26.714928 46.5453146,26.5274687 46.6122387,26.3619577 C47.6481222,23.7864613 47.6506408,23.7810642 47.6542389,23.7717092 C47.8208294,23.3791601 48.2623122,23.2517885 49.4691039,23.2517885 C50.4341055,23.2517885 51.5365532,23.340301 51.9658026,23.3784405 C52.1003703,23.3903141 52.2248634,23.4014681 52.3389222,23.4122623 C51.6869524,22.4515784 50.5125433,22.0748608 48.4047957,22.0748608 C48.0032514,22.0748608 47.5538528,22.0881737 47.0306939,22.115519 C46.8439542,22.1245141 46.6626116,22.0360017 46.5568284,21.8805652 C46.4506855,21.7247689 46.4334147,21.5247164 46.5114928,21.3530886 C46.5114928,21.3530886 47.6387672,18.8733008 47.6567575,18.833722 C47.8427776,18.4253414 48.3306755,18.3695714 48.830447,18.3695714 C49.323742,18.3695714 49.9436889,18.4339768 50.3535088,18.4767938 C50.5247768,18.4947841 50.6557464,18.5095362 50.7143949,18.5109754 L58.9888696,18.4919057 C59.1622965,18.4951439 59.3404008,18.582577 59.440427,18.7344154 C59.5408131,18.8862538 59.5573642,19.0783906 59.4857627,19.2453409 L58.4128191,21.7352033 C58.3271851,21.933097 58.1321699,22.0611882 57.9170055,22.0611882 L55.8402012,22.0611882 C56.0658,22.5246192 56.2788055,23.0801607 56.3723553,23.6580103 L58.9805941,23.6112354 C59.1748897,23.6137541 59.3368027,23.6983086 59.438628,23.8512265 C59.5408131,24.0037845 59.5580838,24.1980802 59.4846833,24.3664697 L58.4117397,26.832225 C58.3279047,27.0243618 58.1408052,27.1510138 57.9310379,27.1564109 L56.3291785,27.1985082 C55.9125223,30.255426 54.1516283,32.4631999 51.4897783,33.3094653 C51.9884704,34.0405925 52.5925859,35.3236632 53.4554024,37.405145 C53.5698209,37.6811167 53.660852,37.900239 53.7195005,38.0312086 C54.3340503,39.4013526 55.0410705,40.735156 55.7247032,42.0247032 L56.119771,42.7716619 C56.153233,42.8357075 56.2273532,42.9997794 56.3234216,43.2142242 C56.4874934,43.5808672 56.9081075,44.5217617 57.0948471,44.7826216 C57.249564,44.8772508 57.3531884,45.0481589 57.3531884,45.2431742 C57.3531884,45.5410941 57.1121179,45.7828842 56.8138381,45.7828842 L53.9951124,45.7843235 L53.9947526,45.7843235 L53.9947526,45.7843235 Z M48.1612065,31.5885098 C48.1335014,33.3623569 48.1331416,33.3720716 48.1327818,33.3839453 C48.1536506,33.5951518 48.5461997,34.302172 49.2999947,35.4560721 C49.3935445,35.5989153 49.4680245,35.7133339 49.5115611,35.7842158 C50.708638,37.7322093 51.7930954,39.8385177 52.8422917,41.8753834 C53.3208346,42.8047642 53.8144894,43.7625696 54.317859,44.7049034 L55.8229305,44.7038239 C55.6876431,44.4278522 55.529688,44.0831574 55.3382708,43.6542678 C55.2562349,43.4711262 55.1939883,43.3308016 55.164844,43.2753913 L54.7708557,42.5302316 C54.0789474,41.2252127 53.3640115,39.8755778 52.7343497,38.4730513 C52.6728228,38.3356051 52.5778338,38.1064082 52.458378,37.8185629 C51.4059434,35.2797668 50.6874094,33.8498949 50.3211262,33.5660075 C50.0825743,33.5451387 49.8792835,33.3655951 49.837546,33.1191275 C49.7875328,32.8258851 49.9839873,32.5477545 50.2768699,32.4966619 C53.147048,31.995811 55.0277576,29.8002705 55.3076873,26.6238969 C55.3314345,26.3508037 55.5566735,26.1388775 55.831206,26.1320412 L57.5593576,26.0863457 L58.1602348,24.7054076 L55.8912937,24.7460658 C55.7491701,24.7435471 55.6095651,24.6938938 55.5066604,24.5942273 C55.4033958,24.4949207 55.3443875,24.3581941 55.3418689,24.2149911 C55.3314345,23.5439516 55.0119261,22.6685419 54.4646602,21.8122019 C54.3585172,21.6459712 54.3516808,21.4351245 54.44631,21.2624173 C54.541299,21.0893502 54.7226416,20.981768 54.9198156,20.981768 L57.5615164,20.981768 L58.1688702,19.5731248 L50.7125959,19.5903955 C50.6276815,19.5903955 50.5067864,19.5781621 50.2412491,19.550457 C49.8537373,19.5101586 49.2676121,19.4489915 48.830447,19.4489915 C48.7048745,19.4489915 48.6174414,19.453669 48.5577135,19.4597857 C48.4645236,19.6645157 48.2680691,20.0966436 47.8564503,21.002277 C48.048587,20.9975995 48.231009,20.9954407 48.4047957,20.9954407 C50.6949653,20.9954407 52.9297248,21.3502101 53.7673548,23.9257065 C53.7680744,23.9275055 53.7684342,23.9289447 53.768794,23.9307438 C53.7691538,23.9314634 53.7691538,23.9318232 53.7695136,23.932183 C53.8601849,24.2160705 53.7047484,24.5193875 53.4212207,24.6107784 C53.2888118,24.6535954 53.1524451,24.6424414 53.0347883,24.5895498 C52.6868552,24.5179483 50.8522009,24.3312086 49.4691039,24.3312086 C48.9657343,24.3312086 48.7030754,24.3574745 48.5731852,24.3790629 C48.4368185,24.7180008 48.1374593,25.4624409 47.908982,26.0302159 L53.5180087,26.0773506 C53.6723658,26.07843 53.8188071,26.1457138 53.9202726,26.2619314 C54.0217381,26.3785088 54.068513,26.532506 54.0487236,26.6857837 C53.6097594,30.0956718 52.0388434,31.6165747 48.9552999,31.6165747 C48.7063137,31.6165747 48.4440146,31.6075796 48.1612065,31.5885098 L48.1612065,31.5885098 Z" id="Fill-7" fill="#666666"/>
                    <path d="M5.51043965,35.5546591 C5.21215989,35.5546591 4.97072959,35.312869 4.97072959,35.014949 L4.96965017,16.3776815 C4.96965017,16.1056676 5.17222135,15.8757511 5.44243618,15.8419293 C5.60147074,15.8228595 5.75582782,15.8743119 5.86880712,15.9743382 C6.41175544,16.1135834 8.65622965,16.0822802 12.5439411,15.8811482 C13.1045199,15.8520039 13.379772,15.8379714 13.485915,15.8379714 L13.4869944,15.8379714 C13.7852742,15.8383312 14.0263447,16.0801213 14.0259849,16.3780413 C14.0256251,16.676321 13.7841948,16.9173915 13.4862748,16.9173915 L13.4848356,16.9173915 C13.4031595,16.9173915 13.0311193,16.9364613 12.5997111,16.9591291 C8.87283328,17.1523453 7.00435708,17.1782514 6.04907028,17.0843418 L6.0501497,35.014949 C6.0501497,35.312869 5.8083596,35.5546591 5.51043965,35.5546591" id="Fill-8" fill="#666666"/>
                    <path d="M75.3014261,50.838888 C74.5436732,50.838888 73.7905978,50.7471373 73.0576715,50.6575454 C72.3279835,50.5683134 71.6385939,50.4844784 70.9502836,50.4841186 C70.6523637,50.4841186 70.4109334,50.2423285 70.4109334,49.9440487 C70.4109334,49.645769 70.6527235,49.4046985 70.9506434,49.4046985 L70.9510033,49.4046985 C71.7044385,49.4050583 72.4589531,49.496809 73.1882813,49.5856813 C74.0820412,49.6950625 74.9257879,49.7990466 75.7598198,49.7457953 C76.1879898,49.7184499 76.6075244,49.655124 77.0518857,49.5878401 C77.485093,49.5227151 77.9287346,49.455791 78.387848,49.4234084 L78.3864088,31.3060616 C78.3864088,31.0081416 78.6281989,30.7663515 78.9261188,30.7663515 C79.2240388,30.7663515 79.4658289,31.0081416 79.4658289,31.3060616 L79.4672681,49.9436889 C79.4672681,50.0865322 79.4104186,50.2239784 79.309313,50.325084 C79.2082073,50.4261897 79.0707611,50.483399 78.927558,50.483399 C78.354386,50.483399 77.7999238,50.5668741 77.2127193,50.6553866 C76.7658394,50.7230303 76.303128,50.7924729 75.8278233,50.8230565 C75.6522376,50.8338507 75.4770118,50.838888 75.3014261,50.838888" id="Fill-9" fill="#666666"/>
                    <path d="M75.6482798,57.1628506 C70.4404375,57.1786821 65.2232404,57.2279756 60.0470611,57.2740309 C58.8363116,57.2844653 57.6183659,57.1578133 56.398981,57.1578133 C45.3586721,57.1585329 34.3025318,57.2844653 23.2784142,57.0005778 C21.6769146,56.9595598 3.15046749,57.3992436 3.14758903,57.162131 C3.09541706,51.7999317 3.14758903,46.4323353 3.14758903,41.070136 C3.14758903,31.705447 3.47573275,22.2284983 3.14686942,12.8695661 C3.15946265,13.2304523 21.2516231,12.5745246 22.7325875,12.5687677 C33.0727125,12.521633 43.4326269,12.8674073 53.7860647,12.8663279 C81.1968589,12.0538843 79.1578343,12.6536821 79.2369918,18.1518883 C79.245987,21.3674808 79.2531831,24.5834331 79.2600194,27.7997452 C79.2769303,35.8752469 79.2193613,43.9550662 79.2200809,52.0381238 C79.2197211,52.1615375 79.2197211,53.2679431 79.2200809,54.4207637 C79.2474262,57.3441932 78.9325953,57.389169 75.6482798,57.1628506" id="Fill-10" fill="#F2F2F2"/>
                    <path d="M59.9013394,57.8144606 C59.3076584,57.8144606 58.7082204,57.7845966 58.1289316,57.7554523 C57.5600772,57.7270275 56.9717933,57.6975234 56.398981,57.6975234 C53.8173679,57.6975234 51.2346754,57.7047195 48.6516231,57.7115558 C46.036548,57.7191118 43.4214728,57.7263079 40.8067575,57.7263079 C36.001539,57.7263079 29.6646234,57.7050793 23.2643818,57.539928 C22.7124383,57.525176 20.064261,57.5708714 16.9350221,57.6234032 C11.9981143,57.7072382 5.53778496,57.8090635 3.72759744,57.7558121 C3.13031831,57.7385413 2.61471531,57.7234295 2.60787898,57.1686075 C2.57297773,53.5888906 2.58521116,49.9501655 2.59636516,46.4312559 C2.60212207,44.644096 2.60787898,42.8565763 2.60787898,41.070136 C2.60787898,37.9520512 2.64457926,34.7681217 2.68055993,31.6888959 C2.75216147,25.5117344 2.82664145,19.1244458 2.60751917,12.8929536 L2.60751917,12.8882761 C2.59708478,12.5903561 2.82987971,12.3406503 3.12779966,12.3302159 C3.22170921,12.3287767 3.31130108,12.3478464 3.38901933,12.3870653 C3.53114298,12.4054155 3.97442483,12.4381579 5.32981668,12.4381579 C8.66342578,12.4381579 14.9708373,12.2503388 19.1449548,12.1262055 C21.011632,12.0707953 22.3601875,12.0301371 22.7304286,12.0290577 C28.2217985,12.0031516 33.818232,12.0909444 39.2257669,12.175499 C43.9834909,12.249979 48.903128,12.3266178 53.7392898,12.3266178 L53.7860647,12.3266178 C60.8260427,12.1179299 65.00052,12.0322959 68.1794122,12.0322959 C75.0488418,12.0322959 77.7697001,12.4403167 78.9635387,13.6496271 C79.8137619,14.5113641 79.7990099,15.6483533 79.7799401,17.0875801 C79.7759822,17.4175228 79.7713048,17.7694138 79.7767019,18.1443324 C79.785697,21.3660416 79.7928932,24.5819939 79.7997295,27.7986658 C79.8094443,32.3282724 79.7946922,36.9348776 79.7810195,41.3900042 C79.7702253,44.9384179 79.7594311,48.4882708 79.7597909,52.0381238 C79.7594311,52.1629767 79.7594311,53.2686627 79.7597909,54.4207637 C79.7720244,55.7200257 79.7371231,56.6871862 79.1776237,57.2520827 C78.7134731,57.720551 78.0194059,57.7853162 77.3382918,57.7853162 C76.8694637,57.7853162 76.3110437,57.7493355 75.6306492,57.7025607 C70.8358651,57.7173127 65.9684,57.7608494 61.261049,57.8025869 L59.9013394,57.8144606 L59.9013394,57.8144606 Z M56.398981,56.6181033 C56.9987788,56.6181033 57.6007354,56.648327 58.1829026,56.6771116 C58.7488786,56.7058961 59.3342841,56.7350404 59.9013394,56.7350404 L61.2513342,56.7231668 C65.966601,56.6810694 70.8423416,56.6378926 75.6464807,56.6231406 C75.6666299,56.6199023 75.6727466,56.6235004 75.6856997,56.6245798 C76.3308331,56.668836 76.9004071,56.7058961 77.3382918,56.7058961 C77.9341317,56.7058961 78.2647941,56.6400515 78.4108756,56.4925307 C78.6490677,56.25182 78.6904454,55.5232115 78.6803708,54.425801 C78.680011,53.2672234 78.680011,52.1600982 78.6803708,52.0366845 C78.680011,48.4871914 78.6908052,44.9366189 78.7015994,41.3864061 C78.7152721,36.9327188 78.7300242,32.3279126 78.7203094,27.8008247 C78.7134731,24.5848724 78.7062769,21.3689201 78.6972818,18.1533276 C78.6915248,17.7740913 78.6965621,17.4124856 78.70052,17.0735476 C78.71923,15.6771378 78.7048377,14.9244222 78.1949916,14.4080996 C77.2742462,13.4751208 74.4663147,13.111716 68.1794122,13.111716 C65.0120338,13.111716 60.8465516,13.1969902 53.802256,13.4056781 L53.7392898,13.4060379 C48.8948524,13.4060379 43.9708977,13.3290393 39.208856,13.2549191 C34.4550898,13.1807989 29.5390508,13.1038003 24.7108047,13.1038003 C24.0527182,13.1038003 23.3931926,13.1052395 22.7351061,13.1084778 C22.3785377,13.1095572 21.035739,13.1498556 19.1769776,13.204906 C14.9967434,13.3297589 8.67961708,13.517578 5.32981668,13.517578 C4.62855342,13.517578 4.1014366,13.517578 3.70816787,13.4981484 C3.90102427,19.5497374 3.82942273,25.7240204 3.75998004,31.7014891 C3.72399937,34.7774766 3.68729909,37.9581679 3.68729909,41.070136 C3.68729909,42.8580155 3.68154218,44.6462549 3.67578527,46.434854 C3.66463126,49.7922103 3.65347726,53.2589479 3.6826216,56.6749527 C3.97622387,56.6843077 4.48283171,56.6929431 5.35644238,56.6929431 C8.11040288,56.6929431 12.9933396,56.6105473 16.9170317,56.5443429 C20.0836905,56.4910915 22.7307884,56.4464755 23.2920869,56.4612275 C29.6800951,56.6256592 36.0076557,56.6468878 40.8067575,56.6468878 C43.4203934,56.6468878 46.0343891,56.6396917 48.6483848,56.6321357 C51.2325165,56.6252994 53.8162885,56.6181033 56.398981,56.6181033 L56.398981,56.6181033 Z" id="Fill-11" fill="#666666"/>
                    <path d="M73.0824982,54.5438176 C72.3243854,54.5438176 71.5709502,54.4520669 70.838024,54.362475 C70.108336,54.2736028 69.4200257,54.1890482 68.7317155,54.1886884 C68.4337956,54.1883286 68.1920055,53.9468983 68.1923653,53.6486186 C68.1927251,53.3506986 68.4341554,53.1092683 68.7320753,53.1092683 L68.7324351,53.1092683 C69.4855106,53.1096281 70.2396654,53.2017386 70.9686338,53.2906109 C71.8620338,53.3999921 72.7050609,53.5039763 73.5412517,53.4507249 C73.9694217,53.4233796 74.3889563,53.3600536 74.8329578,53.2927697 C75.2665248,53.2276447 75.7101665,53.1607207 76.1692799,53.1283381 L76.1678406,35.0109912 C76.1678406,34.7130712 76.4096307,34.4712811 76.7075507,34.4712811 C77.0058304,34.4712811 77.2472607,34.7130712 77.2472607,35.0109912 L77.2487,53.6482587 C77.2487,53.7914618 77.1918505,53.928908 77.0907448,54.0300137 C76.9896391,54.1311193 76.852193,54.1879688 76.7089899,54.1879688 C76.1358178,54.1879688 75.5809959,54.2718038 74.9941512,54.3603162 C74.5472712,54.4279599 74.0845598,54.4974026 73.6092552,54.5279861 C73.4336695,54.5387803 73.257724,54.5438176 73.0824982,54.5438176" id="Fill-12" fill="#666666"/>
                    <path d="M51.7761845,48.9499028 C50.1045225,45.8444112 48.614563,42.6719955 46.8324404,39.770874 C46.5928091,39.3783249 45.3665879,37.6221084 45.3748634,37.0611698 C45.375583,37.0474971 45.4122833,34.7062349 45.4122833,34.7062349 C48.4159497,35.01315 50.7518148,34.5407238 51.2951229,30.3216304 L44.8945215,30.2680192 C44.8945215,30.2680192 45.9278863,27.699719 45.9307648,27.6918032 C46.1207427,27.2442037 51.0011608,27.690364 51.0371415,27.8019041 C50.2585198,25.4005542 48.1180297,25.1069519 44.7840608,25.2814581 C44.7840608,25.2814581 45.9293256,22.7624514 45.9300452,22.7606524 C46.0790051,22.4335881 48.2252521,22.7559749 48.4929483,22.7559749 C51.2746139,22.7494984 53.992234,22.7430219 56.7713809,22.7365453 L55.6984373,25.2264077 L52.7012475,25.2264077 C53.2499527,26.0863457 53.6500578,27.0718563 53.6633706,27.9112853 L56.7713809,27.8558751 L55.6984373,30.3216304 L53.6266703,30.3766808 C53.3028443,34.0539053 51.0263473,36.2314555 48.1507721,36.7333859 C48.9139222,36.6067339 50.6258824,41.1028785 51.008357,41.9566998 C51.7473999,43.6042546 52.5965438,45.1586196 53.4233796,46.7280964 C53.5593865,46.9846386 54.3678722,48.9481038 54.5949102,48.9481038 L51.7761845,48.9499028" id="Fill-13" fill="#FFFFFF"/>
                    <path d="M51.7761845,49.4896129 C51.577931,49.4896129 51.3951492,49.3805914 51.3012396,49.2057254 C50.7410206,48.1648046 50.1941144,47.1037346 49.6655584,46.0772061 C48.5771431,43.9644212 47.5491753,41.9689332 46.3726074,40.0533223 C46.3315895,39.9867581 46.2632262,39.8816945 46.1772324,39.7500053 C45.3212522,38.439949 44.8275974,37.5785718 44.8351534,37.053254 C44.8369524,36.9748162 44.8725733,34.6979593 44.8725733,34.6979593 C44.8750919,34.5468405 44.9405767,34.4032777 45.0539159,34.3028916 C45.1665354,34.2025055 45.3183738,34.1553708 45.4669739,34.1694033 C45.9458767,34.218337 46.3610936,34.2420843 46.7370916,34.2420843 C48.7084725,34.2420843 50.1405032,33.6476836 50.6651014,30.8563032 L44.889844,30.8077293 C44.7113799,30.8062901 44.5451492,30.7166982 44.4458425,30.568098 C44.3465359,30.4198577 44.3267465,30.2320386 44.3936706,30.0661677 C44.3936706,30.0661677 45.4018489,27.561913 45.4284746,27.4942694 C45.6022613,27.0840897 46.0437441,26.9567181 47.2505358,26.9567181 C48.2158972,26.9567181 49.3179851,27.0452306 49.7472345,27.0830103 C49.8818022,27.0952437 50.0055757,27.1063977 50.120354,27.1171919 C49.4680245,26.156508 48.2932556,25.7794306 46.1844285,25.7794306 C45.7836038,25.7794306 45.3345651,25.7927435 44.8121257,25.8204486 C44.6246665,25.8287241 44.4440435,25.7412911 44.3382603,25.585135 C44.2321173,25.4293387 44.2148466,25.229646 44.2925649,25.0580182 C44.2925649,25.0580182 45.4201991,22.5782304 45.4381894,22.5386516 C45.6242095,22.130271 46.1117476,22.074501 46.6111593,22.074501 C47.1044542,22.074501 47.7244012,22.1389064 48.1345808,22.1820832 C48.3062086,22.2000735 48.4371783,22.2148256 48.4958268,22.2162648 L56.7703015,22.1968353 L56.7713809,22.1968353 C56.9527235,22.1968353 57.1221925,22.2878664 57.2218589,22.439345 C57.3218852,22.5911834 57.3387961,22.7833202 57.2671946,22.9502705 L56.194251,25.4401329 C56.108617,25.6380266 55.9136017,25.7661178 55.6984373,25.7661178 L53.621633,25.7661178 C53.8472319,26.2299086 54.0602374,26.7854502 54.1537872,27.3629399 L56.7620259,27.316165 C56.9577608,27.3158052 57.1182346,27.4035981 57.2200599,27.5561561 C57.3226048,27.7087142 57.3395157,27.9030098 57.2661151,28.0713993 L56.1931716,30.5371546 C56.1093366,30.7292914 55.9222371,30.8559434 55.7128296,30.8609807 L54.1106104,30.9037977 C53.6935944,33.9607154 51.9330602,36.1677697 49.2712102,37.0143949 C49.7699023,37.7455221 50.3740178,39.0285928 51.2368342,41.1100746 C51.3512528,41.3856865 51.4422839,41.6051686 51.5009323,41.7361382 C52.1154822,43.1062822 52.8225024,44.4400856 53.5061351,45.7296328 L53.9012029,46.4765916 C53.9346649,46.5406371 54.0087851,46.704709 54.1048535,46.918794 C54.2689253,47.2857968 54.6895393,48.2266914 54.876279,48.4875512 C55.0309959,48.5818206 55.1346202,48.7530886 55.1346202,48.9481038 C55.1346202,49.2460237 54.8931899,49.487454 54.59527,49.4878138 L51.7765443,49.4896129 L51.7761845,49.4896129 L51.7761845,49.4896129 Z M45.9429982,35.2934394 C45.9149333,37.0676463 45.9145735,37.0770013 45.9138539,37.0888749 C45.9350825,37.2997216 46.3272718,38.006382 47.0810668,39.1595625 C47.1746166,39.3034851 47.2494564,39.4182635 47.292993,39.489865 C48.4904297,41.4382183 49.5756067,43.5452463 50.6251628,45.5828317 C51.1033459,46.5114928 51.5962811,47.4685786 52.0992909,48.409833 L53.6047221,48.4091134 C53.469075,48.132422 53.3111199,47.7877272 53.1197027,47.3591974 C53.0376668,47.1760558 52.9754202,47.0357312 52.9462759,46.9803209 L52.5522875,46.2351613 C51.8603792,44.9301423 51.1454433,43.5805074 50.5157816,42.1779809 C50.4542546,42.0405347 50.3592657,41.8113379 50.2398099,41.5234925 C49.1873752,38.9846964 48.4688413,37.5548246 48.102558,37.2709371 C47.8640062,37.2497085 47.6607154,37.0705247 47.6189778,36.8240571 C47.5689647,36.5308147 47.7654192,36.2526841 48.057942,36.2015916 C50.9284799,35.7007406 52.8091895,33.5055599 53.0891191,30.3291864 C53.1128664,30.0560931 53.3381054,29.8441669 53.6122781,29.8373306 L55.3407895,29.7912753 L55.9416667,28.4103372 L53.6727256,28.4509954 C53.524845,28.4459581 53.3913568,28.3988234 53.2880922,28.2991569 C53.1848277,28.1998503 53.1258194,28.0631238 53.1236606,27.9199207 C53.1128664,27.2496008 52.793358,26.3738313 52.246092,25.5167717 C52.139949,25.3509008 52.1331127,25.1400541 52.2277419,24.9673469 C52.3227309,24.7942799 52.5040734,24.6866977 52.7012475,24.6866977 L55.3433081,24.6866977 L55.950302,23.2780544 L48.4943875,23.2956849 C48.4091134,23.2956849 48.2878585,23.2834515 48.0223211,23.2557464 C47.6344495,23.2147284 47.0483244,23.1539211 46.6111593,23.1539211 C46.4859465,23.1539211 46.3985135,23.1589584 46.3391454,23.1650751 C46.2459555,23.3694453 46.0498608,23.8012134 45.6378821,24.7075664 C45.8292993,24.7025292 46.0110017,24.7000105 46.1844285,24.7000105 C48.4753178,24.7000105 50.7100772,25.0554995 51.5484268,27.6291969 C51.5491464,27.6320753 51.5502259,27.634594 51.5509455,27.6374724 C51.6416168,27.9210001 51.4861803,28.2243172 51.2026526,28.3157081 C51.0706035,28.3581652 50.933877,28.347371 50.8158604,28.2944795 C50.4682871,28.2225181 48.6336327,28.0361382 47.2505358,28.0361382 C46.7478858,28.0361382 46.4852269,28.0624041 46.3549769,28.0839925 C46.2686233,28.2984373 46.0833228,28.7589899 45.6904139,29.7351455 L51.2994406,29.7819204 C51.4537977,29.7833596 51.600239,29.8506434 51.7017045,29.966861 C51.80317,30.0834384 51.8499448,30.2374357 51.8301555,30.3907133 C51.3911913,33.8006014 49.8202752,35.3215044 46.7370916,35.3215044 C46.4881054,35.3215044 46.2254465,35.3125092 45.9429982,35.2934394 L45.9429982,35.2934394 Z" id="Fill-14" fill="#666666"/>
                    <path d="M61.6266126,12.6177014 L12.9332519,12.6177014 C8.87571173,12.6177014 7.52211892,10.5891113 7.52211892,9.23695766 L61.6266126,9.20241622 L61.6266126,4.12986133 C61.6266126,2.10127114 59.5980224,0.410539447 57.5690724,0.749117554 L6.50818363,4.84191879 C3.12708005,5.51727597 0.760271562,8.22266257 0.760271562,11.6037662 L0.760271562,56.5781647 C0.760271562,60.2964072 3.80387646,63.3400121 7.52211892,63.3400121 L61.6266126,63.3400121 C65.344855,63.3400121 68.3884599,60.2964072 68.3884599,56.5781647 L68.3884599,19.3817076 C68.3884599,12.5640902 65.344855,12.6177014 61.6266126,12.6177014" id="Fill-15" fill="#FFFFFF"/>
                    <path d="M56.5544175,43.0508719 C53.8486711,43.0508719 51.4818626,40.6847831 51.4818626,37.9793965 C51.4818626,35.2750893 53.8486711,32.9068416 56.5544175,32.9068416 C59.2583648,32.9068416 61.6266126,35.2750893 61.6266126,37.9793965 C61.6266126,40.6847831 59.2583648,43.0508719 56.5544175,43.0508719" id="Fill-16" fill="#00B8F1"/>
                    <path d="M56.5544175,43.590582 C53.5647836,43.590582 50.9421525,40.9683107 50.9421525,37.9793965 C50.9421525,34.9897626 53.5647836,32.3671315 56.5544175,32.3671315 C59.5436916,32.3671315 62.1663226,34.9897626 62.1663226,37.9793965 C62.1663226,40.9683107 59.5436916,43.590582 56.5544175,43.590582 L56.5544175,43.590582 Z M56.5544175,33.4465516 C54.1397547,33.4465516 52.0215726,35.5647337 52.0215726,37.9793965 C52.0215726,40.3936994 54.1397547,42.5111619 56.5544175,42.5111619 C58.9690803,42.5111619 61.0869025,40.3936994 61.0869025,37.9793965 C61.0869025,35.5647337 58.9690803,33.4465516 56.5544175,33.4465516 L56.5544175,33.4465516 Z" id="Fill-17" fill="#666666"/>
                    <path d="M53.6371047,47.7348356 C44.3166719,44.7775843 35.1401618,41.0769724 26.3410889,36.8416877 C17.802516,32.7326951 10.7269172,27.3086091 3.24473684,21.4592315 C2.3675281,20.5755463 1.54105211,19.6634363 0.760271562,18.7232614 L0.760271562,56.5781647 C0.760271562,60.2964072 3.80387646,63.3400121 7.52211892,63.3400121 L61.6266126,63.3400121 C67.8239232,63.3400121 68.3884599,60.2964072 68.3884599,56.5781647 L68.3884599,51.8240388 C63.4306834,50.6125696 58.5045698,49.2787662 53.6371047,47.7348356" id="Fill-18" fill="#F2F2F2"/>
                    <path d="M61.6266126,63.8797221 L7.52211892,63.8797221 C3.49624173,63.8797221 0.220561509,60.6044017 0.220561509,56.5781647 L0.220561509,11.6037662 C0.220561509,7.98159208 2.70502679,5.05132629 6.40240046,4.31264313 C6.42326925,4.30868526 6.44377823,4.30580681 6.46500683,4.30400777 L57.5035876,0.213005568 C57.698243,0.181702385 57.8968563,0.16587089 58.09475,0.16587089 C60.2636648,0.16587089 62.1663226,2.01815579 62.1663226,4.12986133 L62.1663226,9.20241622 C62.1663226,9.50033617 61.9248923,9.74176647 61.6269724,9.74212627 L8.15106104,9.77630791 C8.46984977,10.7769303 9.70866425,12.0779914 12.9332519,12.0779914 L61.6266126,12.0779914 C68.4769724,12.0779914 68.92817,12.9958583 68.92817,19.3817076 L68.92817,56.5781647 C68.92817,62.7880686 67.8365164,63.8797221 61.6266126,63.8797221 L61.6266126,63.8797221 Z M6.58338323,5.37731117 C3.42176174,6.02172497 1.29998162,8.52058252 1.29998162,11.6037662 L1.29998162,56.5781647 C1.29998162,60.0089216 4.09136201,62.800302 7.52211892,62.800302 L61.6266126,62.800302 C67.2673022,62.800302 67.8487499,62.2188544 67.8487499,56.5781647 L67.8487499,19.3817076 C67.8487499,13.6276789 67.8487499,13.1574115 61.6266126,13.1574115 L12.9332519,13.1574115 C8.22626064,13.1574115 6.98240887,10.5927093 6.98240887,9.23695766 C6.98240887,8.93903771 7.22383916,8.69760742 7.52175911,8.69724761 L61.0869025,8.66306597 L61.0869025,4.12986133 C61.0869025,2.62011241 59.6609885,1.245291 58.09475,1.245291 C57.9483086,1.245291 57.8015075,1.25752442 57.6579446,1.28127167 C57.6428328,1.28379031 57.6273611,1.28594915 57.6122492,1.28702857 L6.58338323,5.37731117 L6.58338323,5.37731117 Z" id="Fill-19" fill="#666666"/>
                    <path d="M4.29861067,44.1234557 C4.32307753,47.7290787 4.83724131,51.9492515 7.59444007,54.6028259 C8.88794516,55.8477571 10.0260138,57.2581994 11.592972,58.1807438 C13.5039053,59.3062191 15.6717407,59.3612696 17.8097122,59.6753808 C18.1493697,59.7253939 18.2961708,59.2054733 17.953275,59.1551003 C16.149564,58.8899228 14.2922418,58.8507039 12.6105053,58.0875538 C10.8467329,57.2873437 9.70002889,55.8912937 8.35039395,54.5722424 C5.50072487,51.7866189 4.86422681,47.9323695 4.83832073,44.1234557 C4.83616189,43.7762423 4.29645183,43.7755226 4.29861067,44.1234557" id="Fill-20" fill="#808080"/>
                </g>
            </g>
        </g>
    </g>
</svg>